<svg height="512pt" viewBox="-68 0 512 512.0428" width="512pt" xmlns="http://www.w3.org/2000/svg"><path d="m25.621094 512.042969h324.265625c14.140625 0 25.601562-11.460938 25.601562-25.601563v-409.597656c0-14.140625-11.460937-25.601562-25.601562-25.601562h-61.300781c-3.605469-10.191407-13.222657-17.019532-24.03125-17.066407h-34.988282c-4.035156-19.886719-21.519531-34.175781-41.8125-34.175781-20.289062 0-37.773437 14.289062-41.8125 34.175781h-34.988281c-10.808594.046875-20.425781 6.875-24.027344 17.066407h-61.304687c-6.789063 0-13.300782 2.699218-18.101563 7.5-4.800781 4.800781-7.4999998 11.3125-7.4999998 18.101562v409.597656c0 14.140625 11.4648438 25.601563 25.6015628 25.601563zm61.304687-409.601563c3.601563 10.191406 13.21875 17.023438 24.027344 17.066406h153.601563c10.808593-.042968 20.425781-6.875 24.03125-17.066406h35.703124v358.402344h-273.066406v-358.402344zm100.828125-85.332031c10.8125.042969 20.425782 6.875 24.03125 17.066406h-48.058594c3.601563-10.191406 13.21875-17.023437 24.027344-17.066406zm-76.800781 34.132813h153.601563c4.710937 0 8.535156 3.820312 8.535156 8.535156v34.132812c0 4.710938-3.824219 8.53125-8.535156 8.53125h-153.601563c-4.710937 0-8.53125-3.820312-8.53125-8.53125v-34.132812c0-4.714844 3.820313-8.535156 8.53125-8.535156zm-93.863281 25.601562c0-4.714844 3.820312-8.535156 8.53125-8.535156h59.734375v17.066406h-34.132813c-9.425781 0-17.066406 7.640625-17.066406 17.066406v358.402344c0 9.425781 7.640625 17.066406 17.066406 17.066406h273.066406c9.425782 0 17.066407-7.640625 17.066407-17.066406v-358.402344c0-9.425781-7.640625-17.066406-17.066407-17.066406h-34.132812v-17.066406h59.730469c4.714843 0 8.535156 3.820312 8.535156 8.535156v409.597656c0 4.714844-3.820313 8.535156-8.535156 8.535156h-324.265625c-4.710938 0-8.53125-3.820312-8.53125-8.535156zm0 0"/><path d="m128.019531 85.375h17.070313c4.710937 0 8.53125-3.820312 8.53125-8.53125 0-4.714844-3.820313-8.535156-8.53125-8.535156h-17.070313c-4.710937 0-8.53125 3.820312-8.53125 8.535156 0 4.710938 3.820313 8.53125 8.53125 8.53125zm0 0"/><path d="m179.222656 85.375h68.265625c4.710938 0 8.53125-3.820312 8.53125-8.53125 0-4.714844-3.820312-8.535156-8.53125-8.535156h-68.265625c-4.714844 0-8.535156 3.820312-8.535156 8.535156 0 4.710938 3.820312 8.53125 8.535156 8.53125zm0 0"/><path d="m85.355469 256.042969c0-4.714844-3.820313-8.535157-8.535157-8.535157-4.710937 0-8.53125 3.820313-8.53125 8.535157 0 21.09375 18.492188 38.621093 42.664063 42.027343v.640626c0 4.710937 3.820313 8.53125 8.535156 8.53125 4.710938 0 8.53125-3.820313 8.53125-8.53125v-.640626c24.175781-3.414062 42.667969-20.933593 42.667969-42.027343s-18.492188-38.621094-42.667969-42.027344v-50.933594c14.6875 2.867188 25.601563 12.796875 25.601563 24.695313 0 4.710937 3.820312 8.53125 8.535156 8.53125 4.710938 0 8.53125-3.820313 8.53125-8.53125 0-21.09375-18.492188-38.625-42.667969-42.027344v-.640625c0-4.710937-3.820312-8.535156-8.53125-8.535156-4.714843 0-8.535156 3.824219-8.535156 8.535156v.640625c-24.171875 3.414062-42.664063 20.933594-42.664063 42.027344s18.492188 38.621094 42.664063 42.027344v50.925781c-14.683594-2.859375-25.597656-12.792969-25.597656-24.6875zm68.265625 0c0 11.894531-10.914063 21.828125-25.601563 24.6875v-49.382813c14.6875 2.867188 25.601563 12.800782 25.601563 24.695313zm-68.265625-68.265625c0-11.898438 10.914062-21.828125 25.597656-24.695313v49.382813c-14.683594-2.859375-25.597656-12.792969-25.597656-24.6875zm0 0"/><path d="m76.820312 435.242188c2.265626 0 4.433594-.898438 6.035157-2.5l62.234375-62.234376 36.632812 36.632813c3.332032 3.332031 8.734375 3.332031 12.066406 0l96.367188-96.363281v13.53125c0 4.714844 3.820312 8.535156 8.53125 8.535156 4.714844 0 8.535156-3.820312 8.535156-8.535156v-34.132813c-.019531-1.019531-.222656-2.027343-.597656-2.976562-.113281-.292969-.242188-.578125-.386719-.855469-.320312-.640625-.726562-1.234375-1.203125-1.773438-.179687-.230468-.378906-.449218-.585937-.65625-.664063-.628906-1.425781-1.140624-2.253907-1.519531-.078124 0-.136718-.09375-.214843-.128906-.941407-.375-1.945313-.574219-2.960938-.589844-.109375 0-.195312-.058593-.304687-.058593h-34.160156c-4.710938 0-8.535157 3.820312-8.535157 8.535156 0 4.710937 3.824219 8.53125 8.535157 8.53125h13.535156l-90.335938 90.359375-36.632812-36.632813c-3.332032-3.332031-8.734375-3.332031-12.066406 0l-68.265626 68.265625c-2.441406 2.441407-3.171874 6.109375-1.851562 9.300781 1.324219 3.1875 4.433594 5.265626 7.882812 5.265626zm0 0"/><path d="m128.019531 409.644531c-4.710937 0-8.53125 3.820313-8.53125 8.53125v8.535157c0 4.710937 3.820313 8.53125 8.53125 8.53125 4.714844 0 8.535157-3.820313 8.535157-8.53125v-8.535157c0-4.710937-3.820313-8.53125-8.535157-8.53125zm0 0"/><path d="m162.15625 409.644531c-4.714844 0-8.535156 3.820313-8.535156 8.53125v8.535157c0 4.710937 3.820312 8.53125 8.535156 8.53125 4.710938 0 8.53125-3.820313 8.53125-8.53125v-8.535157c0-4.710937-3.820312-8.53125-8.53125-8.53125zm0 0"/><path d="m213.355469 409.644531c-4.714844 0-8.535157 3.820313-8.535157 8.53125v8.535157c0 4.710937 3.820313 8.53125 8.535157 8.53125 4.710937 0 8.53125-3.820313 8.53125-8.53125v-8.535157c0-4.710937-3.820313-8.53125-8.53125-8.53125zm0 0"/><path d="m247.488281 375.507812c-4.714843 0-8.535156 3.820313-8.535156 8.535157v42.667969c0 4.710937 3.820313 8.53125 8.535156 8.53125 4.710938 0 8.53125-3.820313 8.53125-8.53125v-42.667969c0-4.714844-3.820312-8.535157-8.53125-8.535157zm0 0"/><path d="m281.621094 341.375c-4.710938 0-8.53125 3.820312-8.53125 8.535156v76.800782c0 4.710937 3.820312 8.53125 8.53125 8.53125 4.714844 0 8.535156-3.820313 8.535156-8.53125v-76.800782c0-4.714844-3.820312-8.535156-8.535156-8.535156zm0 0"/><path d="m204.820312 179.242188h17.066407c4.714843 0 8.535156-3.820313 8.535156-8.53125 0-4.714844-3.820313-8.535157-8.535156-8.535157h-17.066407c-4.710937 0-8.53125 3.820313-8.53125 8.535157 0 4.710937 3.820313 8.53125 8.53125 8.53125zm0 0"/><path d="m256.019531 179.242188h34.136719c4.710938 0 8.53125-3.820313 8.53125-8.53125 0-4.714844-3.820312-8.535157-8.53125-8.535157h-34.136719c-4.710937 0-8.53125 3.820313-8.53125 8.535157 0 4.710937 3.820313 8.53125 8.53125 8.53125zm0 0"/><path d="m204.820312 247.507812h17.066407c4.714843 0 8.535156-3.820312 8.535156-8.53125 0-4.714843-3.820313-8.535156-8.535156-8.535156h-17.066407c-4.710937 0-8.53125 3.820313-8.53125 8.535156 0 4.710938 3.820313 8.53125 8.53125 8.53125zm0 0"/><path d="m290.15625 230.441406h-34.136719c-4.710937 0-8.53125 3.820313-8.53125 8.535156 0 4.710938 3.820313 8.53125 8.53125 8.53125h34.136719c4.710938 0 8.53125-3.820312 8.53125-8.53125 0-4.714843-3.820312-8.535156-8.53125-8.535156zm0 0"/><path d="m290.15625 196.308594h-17.066406c-4.714844 0-8.535156 3.820312-8.535156 8.535156 0 4.710938 3.820312 8.53125 8.535156 8.53125h17.066406c4.710938 0 8.53125-3.820312 8.53125-8.53125 0-4.714844-3.820312-8.535156-8.53125-8.535156zm0 0"/><path d="m204.820312 213.375h34.132813c4.714844 0 8.535156-3.820312 8.535156-8.53125 0-4.714844-3.820312-8.535156-8.535156-8.535156h-34.132813c-4.710937 0-8.53125 3.820312-8.53125 8.535156 0 4.710938 3.820313 8.53125 8.53125 8.53125zm0 0"/></svg>