<svg height="502pt" viewBox="0 -3 502.2 502" width="502pt" xmlns="http://www.w3.org/2000/svg"><path d="m251.105469 128.101562c13.230469 0 24-10.769531 24-24 0-13.234374-10.769531-24-24-24-13.234375 0-24 10.765626-24 24 0 13.230469 10.765625 24 24 24zm0-32c4.414062 0 8 3.589844 8 8 0 4.40625-3.585938 8-8 8-4.417969 0-8-3.59375-8-8 0-4.410156 3.582031-8 8-8zm0 0"/><path d="m341.335938 368.101562h139.527343l21.335938-64h-23.277344c12.988281-15.585937 20.183594-35.160156 20.183594-56 0-37.554687-23.691407-69.59375-56.867188-82.210937l-11.496093-53.648437 69.167968-8-.847656-7.894532c-1.636719-15.222656-9.140625-28.871094-21.101562-38.433594-11.96875-9.566406-26.960938-13.878906-42.152344-12.085937l-136.351563 15.761719c-4.183593-5.304688-9.816406-9.320313-16.351562-11.523438v-17.964844c0-17.648437-14.351563-32-32-32-17.648438 0-32 14.351563-32 32v17.964844c-10.847657 3.648438-19.257813 12.378906-22.464844 23.417969l-137.382813 15.886719c-31.410156 3.632812-54.195312 32.160156-50.800781 63.59375l.863281 8.007812 61.09375-7.066406-10.621093 60.058594c-33.089844 12.65625-56.6875 44.65625-56.6875 82.136718 0 20.839844 7.191406 40.414063 20.175781 56h-23.28125l21.335938 64h139.527343l21.335938-64h-23.277344c12.988281-15.585937 20.183594-35.160156 20.183594-56 0-37.480468-23.601563-69.480468-56.691407-82.144531l-11.453124-64.746093 102.09375-11.808594c1.433593 3.777344 3.519531 7.152344 6.050781 10.136718v250.882813c0 11.335937-7.730469 20.964844-18.792969 23.429687l-10.945312 2.433594c-24.878907 5.535156-42.261719 27.207032-42.261719 52.695313v3.121093h-112v16h432v-16h-112v-3.121093c0-25.488281-17.386719-47.160157-42.265625-52.6875l-10.945313-2.433594c-11.0625-2.457031-18.789062-12.09375-18.789062-23.421875v-250.890625c2.542969-3.007813 4.65625-6.414063 6.085937-10.214844l3.417969-9.121093 97.855469-11.3125-10.496094 48.992187c-33.175781 12.617187-56.863281 44.65625-56.863281 82.210937 0 20.839844 7.191406 40.414063 20.175781 56h-23.28125zm-90.230469-352c8.824219 0 16 7.175782 16 16v16h-32v-16c0-8.824218 7.175781-16 16-16zm-20.914063 48h41.832032c10.519531 0 19.082031 8.558594 19.082031 19.085938 0 2.296875-.410157 4.542969-1.21875 6.695312l-15.679688 41.824219c-2.78125 7.410157-9.960937 12.394531-17.878906 12.394531h-10.457031c-7.910156 0-15.09375-4.984374-17.871094-12.386718l-15.679688-41.832032c-.808593-2.144531-1.214843-4.398437-1.214843-6.695312 0-10.527344 8.558593-19.085938 19.085937-19.085938zm-169.09375 41.160157 134.636719-15.570313c.378906 1.96875.898437 3.921875 1.609375 5.816406l9.921875 26.472657-182.992187 21.152343c1.695312-19.335937 16.847656-35.5625 36.824218-37.871093zm88.238282 294.839843h-116.464844l-10.664063-32h137.800781zm13.769531-104c0 22-9.875 42.230469-27.050781 56h-36.949219v-16h16v-24c0-13.234374-10.769531-24-24-24-4.417969 0-8-3.59375-8-8v-8h8c4.414062 0 8 3.589844 8 8h16c0-10.417968-6.714844-19.21875-16-22.53125v-17.46875h-16v16h-16v24c0 13.230469 10.765625 24 24 24 4.414062 0 8 3.589844 8 8v8h-8c-4.417969 0-8-3.59375-8-8h-16c0 10.414063 6.710937 19.214844 16 22.527344v17.472656h-36.953125c-17.175782-13.769531-27.046875-34-27.046875-56 0-39.699218 32.292969-72 72-72 39.703125 0 72 32.300782 72 72zm-57.746094-86.738281c-4.648437-.765625-9.390625-1.261719-14.253906-1.261719-4.867188 0-9.601563.496094-14.257813 1.261719l10.152344-57.375 8.039062-.929687zm193.066406 228.113281 10.941407 2.429688c17.511718 3.898438 29.738281 19.136719 29.738281 37.074219v3.121093h-176v-3.121093c0-17.9375 12.222656-33.175781 29.734375-37.074219l10.945312-2.429688c18.445313-4.097656 31.320313-20.152343 31.320313-39.039062v-240.074219c3.429687 1.121094 7.054687 1.738281 10.773437 1.738281h10.457032c3.71875 0 7.34375-.617187 10.777343-1.738281v240.066407c-.007812 18.894531 12.863281 34.949218 31.3125 39.046874zm6.445313-341.96875c1.480468-3.953124 2.234375-8.097656 2.234375-12.320312 0-2.160156-.265625-4.246094-.640625-6.304688l131.183594-15.167968c10.910156-1.238282 21.703124 1.824218 30.320312 8.695312 6.496094 5.195313 11.167969 12.074219 13.566406 19.84375l-182.625 21.117188zm102.367187 19.457032 7.546875-.871094 10.109375 47.199219c-4.503906-.714844-9.085937-1.191407-13.789062-1.191407-4.707031 0-9.289063.476563-13.792969 1.191407zm-68.132812 133.136718c0-39.699218 32.292969-72 72-72 39.703125 0 72 32.300782 72 72 0 22-9.875 42.230469-27.050781 56h-36.949219v-16h16v-24c0-13.234374-10.769531-24-24-24-4.417969 0-8-3.59375-8-8v-8h8c4.414062 0 8 3.589844 8 8h16c0-10.417968-6.714844-19.21875-16-22.53125v-17.46875h-16v16h-16v24c0 13.230469 10.765625 24 24 24 4.414062 0 8 3.589844 8 8v8h-8c-4.417969 0-8-3.59375-8-8h-16c0 10.414063 6.710937 19.214844 16 22.527344v17.472656h-36.953125c-17.175782-13.769531-27.046875-34-27.046875-56zm140.894531 72-10.664062 32h-116.464844l-10.664063-32zm0 0"/><path d="m3.105469 480.101562h16v16h-16zm0 0"/><path d="m483.105469 480.101562h16v16h-16zm0 0"/><path d="m243.105469 448.101562h16v16h-16zm0 0"/><path d="m275.105469 448.101562h16v16h-16zm0 0"/><path d="m211.105469 448.101562h16v16h-16zm0 0"/></svg>