<svg height="480pt" viewBox="0 -31 480 479" width="480pt" xmlns="http://www.w3.org/2000/svg"><path d="m452.558594 160.820312-45.992188-72.320312h17.433594c15.832031.097656 29.296875-11.523438 31.511719-27.199219.128906-.589843.21875-1.191406.273437-1.792969.128906-.585937.203125-1.183593.214844-1.785156 0-.511718 0-.925781 0-1.222656.0625-10.738281-7.015625-20.210938-17.328125-23.195312-10.316406-2.984376-21.359375 1.246093-27.039063 10.359374-5.679687 9.113282-4.617187 20.890626 2.605469 28.835938h-118.238281c-.03125-27.8125-20.472656-51.386719-48-55.359375v-8.640625c0-4.417969-3.582031-8-8-8s-8 3.582031-8 8v8.640625c-27.527344 3.972656-47.96875 27.546875-48 55.359375h-118.238281c7.222656-7.945312 8.285156-19.722656 2.605469-28.835938-5.679688-9.113281-16.722657-13.34375-27.039063-10.359374-10.3125 2.984374-17.390625 12.457031-17.328125 23.195312v1.222656c0 .59375.054688 1.1875.167969 1.769532.023437.394531.082031.789062.167969 1.175781 0 .128906.0625.238281.078124.367187.019532.128906.097657.449219.152344.671875 2.457032 15.453125 15.789063 26.816407 31.433594 26.792969h17.433594l-45.992188 72.320312c-26.132812 24.785157-34.523437 62.992188-21.179687 96.445313 13.339843 33.453125 45.722656 55.402344 81.738281 55.402344s68.398438-21.949219 81.738281-55.402344c13.34375-33.453125 4.953125-71.660156-21.179687-96.445313l-45.992188-72.320312h83.832032c4.5625 15.164062 15.3125 27.699219 29.601562 34.519531v181.480469c-4.417969 0-8 3.582031-8 8v24h-19.503906c-11.015625-.003906-20.617188 7.492188-23.289063 18.175781l-3.453125 13.824219h-17.753906c-13.253906 0-24 10.746094-24 24v16c0 4.417969 3.582031 8 8 8h224c4.417969 0 8-3.582031 8-8v-16c0-13.253906-10.746094-24-24-24h-17.753906l-3.453125-13.824219c-2.671875-10.683593-12.273438-18.179687-23.289063-18.175781h-19.503906v-24c0-4.417969-3.582031-8-8-8v-181.480469c14.304688-6.8125 25.070312-19.347656 29.640625-34.519531h83.792969l-45.992188 72.320312c-26.132812 24.785157-34.523437 62.992188-21.179687 96.445313 13.339843 33.453125 45.722656 55.402344 81.738281 55.402344s68.398438-21.949219 81.738281-55.402344c13.34375-33.453125 4.953125-71.660156-21.179687-96.445313zm-292.558594 63.679688c0 39.765625-32.234375 72-72 72s-72-32.234375-72-72 32.234375-72 72-72c39.746094.046875 71.953125 32.253906 72 72zm-72-88c-10.03125.019531-19.984375 1.769531-29.425781 5.167969l29.425781-46.265625 29.425781 46.265625c-9.441406-3.398438-19.394531-5.148438-29.425781-5.167969zm-40-88c4.417969 0 8 3.582031 8 8s-3.582031 8-8 8-8-3.582031-8-8 3.582031-8 8-8zm192 16c4.417969 0 8 3.582031 8 8s-3.582031 8-8 8-8-3.582031-8-8 3.582031-8 8-8zm104 328v8h-208v-8c0-4.417969 3.582031-8 8-8h192c4.417969 0 8 3.582031 8 8zm-44.726562-33.9375 2.480468 9.9375h-123.507812l2.480468-9.9375c.890626-3.5625 4.09375-6.066406 7.769532-6.0625h103.007812c3.675782-.003906 6.878906 2.5 7.769532 6.0625zm-75.273438-22.0625v-16h32v16zm24-32h-16v-176.640625c5.300781.855469 10.699219.855469 16 0zm-8-192c-20.550781.019531-37.773438-15.535156-39.835938-35.980469-2.066406-20.445312 11.695313-39.128906 31.835938-43.21875v16.664063c-11.019531 3.894531-17.632812 15.164062-15.65625 26.683594 1.976562 11.523437 11.96875 19.941406 23.65625 19.941406s21.679688-8.417969 23.65625-19.941406c1.976562-11.519532-4.636719-22.789063-15.65625-26.683594v-16.664063c20.140625 4.089844 33.902344 22.773438 31.835938 43.21875-2.0625 20.445313-19.285157 36-39.835938 35.980469zm192-64c4.417969 0 8 3.582031 8 8s-3.582031 8-8 8-8-3.582031-8-8 3.582031-8 8-8zm-40 46.902344 29.425781 46.265625c-19.011719-6.890625-39.839843-6.890625-58.851562 0zm0 201.097656c-39.765625 0-72-32.234375-72-72s32.234375-72 72-72 72 32.234375 72 72c-.046875 39.746094-32.253906 71.953125-72 72zm0 0"/><path d="m122.34375 178.84375-80 80c-2.078125 2.007812-2.914062 4.984375-2.179688 7.78125.730469 2.796875 2.914063 4.980469 5.710938 5.710938 2.796875.734374 5.773438-.101563 7.78125-2.179688l80-80c3.03125-3.140625 2.988281-8.128906-.097656-11.214844-3.085938-3.085937-8.074219-3.128906-11.214844-.097656zm0 0"/><path d="m116 228.5c-11.046875 0-20 8.953125-20 20s8.953125 20 20 20 20-8.953125 20-20-8.953125-20-20-20zm0 24c-2.210938 0-4-1.789062-4-4s1.789062-4 4-4 4 1.789062 4 4-1.789062 4-4 4zm0 0"/><path d="m60 216.5c11.046875 0 20-8.953125 20-20s-8.953125-20-20-20-20 8.953125-20 20 8.953125 20 20 20zm0-24c2.210938 0 4 1.789062 4 4s-1.789062 4-4 4-4-1.789062-4-4 1.789062-4 4-4zm0 0"/><path d="m400 185.660156v-9.160156h-16v9.160156c-8.875 2.761719-15.179688 10.640625-15.921875 19.90625s4.222656 18.050782 12.546875 22.191406l15.589844 7.789063c2.84375 1.414063 4.34375 4.597656 3.613281 7.6875-.726563 3.089844-3.484375 5.269531-6.660156 5.265625h-2.335938c-3.769531-.003906-6.828125-3.0625-6.832031-6.832031v-1.167969h-16v1.167969c.035156 9.941406 6.511719 18.710937 16 21.671875v9.160156h16v-9.160156c8.875-2.761719 15.179688-10.640625 15.921875-19.90625s-4.222656-18.050782-12.546875-22.191406l-15.589844-7.789063c-2.84375-1.414063-4.34375-4.597656-3.613281-7.6875.726563-3.089844 3.484375-5.269531 6.660156-5.265625h2.335938c3.769531.003906 6.828125 3.0625 6.832031 6.832031v1.167969h16v-1.167969c-.035156-9.941406-6.511719-18.710937-16-21.671875zm0 0"/><path d="m432 216.5h16v16h-16zm0 0"/><path d="m336 216.5h16v16h-16zm0 0"/><path d="m312 40.5h16v16h-16zm0 0"/><path d="m344 40.5h48v16h-48zm0 0"/><path d="m88 40.5h16v16h-16zm0 0"/><path d="m120 40.5h48v16h-48zm0 0"/></svg>