<svg height="480pt" viewBox="0 0 480 480" width="480pt" xmlns="http://www.w3.org/2000/svg"><path d="m424 0h-368c-30.914062.0351562-55.9648438 25.085938-56 56v368c.0351562 30.914062 25.085938 55.964844 56 56h368c30.914062-.035156 55.964844-25.085938 56-56v-368c-.035156-30.914062-25.085938-55.9648438-56-56zm40 424c-.027344 22.082031-17.917969 39.972656-40 40h-368c-22.082031-.027344-39.972656-17.917969-40-40v-368c.027344-22.082031 17.917969-39.972656 40-40h368c22.082031.027344 39.972656 17.917969 40 40zm0 0"/><path d="m395.625 40.167969c-1.226562-.089844-2.386719-.167969-3.625-.167969h-41.472656c-3.339844-9.585938-12.378906-16.007812-22.527344-16.007812s-19.1875 6.421874-22.527344 16.007812h-130.945312c-3.339844-9.585938-12.378906-16.007812-22.527344-16.007812s-19.1875 6.421874-22.527344 16.007812h-41.472656c-22.082031.027344-39.972656 17.917969-40 40v312c.027344 22.082031 17.917969 39.972656 40 40h304c22.082031-.027344 39.972656-17.917969 40-40v-255.929688l.480469-56.664062c-.261719-20.652344-16.257813-37.683594-36.855469-39.238281zm-307.625 343.832031c-13.253906 0-24-10.746094-24-24v-216h352v160h-56c-13.253906 0-24 10.746094-24 24v56zm316.6875-64-52.6875 52.6875v-44.6875c0-4.417969 3.582031-8 8-8zm11.3125 11.3125v28.6875c0 13.253906-10.746094 24-24 24h-28.6875zm-88-291.3125c4.417969 0 8 3.582031 8 8v40c0 4.417969-3.582031 8-8 8s-8-3.582031-8-8v-40c0-4.417969 3.582031-8 8-8zm-176 0c4.417969 0 8 3.582031 8 8v40c0 4.417969-3.582031 8-8 8s-8-3.582031-8-8v-40c0-4.417969 3.582031-8 8-8zm-88 40c0-13.253906 10.746094-24 24-24h40v24h-8c-4.417969 0-8 3.582031-8 8s3.582031 8 8 8h9.472656c3.339844 9.585938 12.378906 16.007812 22.527344 16.007812s19.1875-6.421874 22.527344-16.007812h9.472656c4.417969 0 8-3.582031 8-8s-3.582031-8-8-8h-8v-24h128v24h-8c-4.417969 0-8 3.582031-8 8s3.582031 8 8 8h9.472656c3.339844 9.585938 12.378906 16.007812 22.527344 16.007812s19.1875-6.421874 22.527344-16.007812h9.472656c4.417969 0 8-3.582031 8-8s-3.582031-8-8-8h-8v-24h40c.800781 0 1.601562.0625 2.503906.121094 12.222656 1.28125 21.5 11.589844 21.496094 23.878906v48h-352zm328 336h-304c-13.253906 0-24-10.746094-24-24v-.207031c6.882812 5.292969 15.316406 8.175781 24 8.207031h304c8.683594-.03125 17.117188-2.914062 24-8.207031v.207031c0 13.253906-10.746094 24-24 24zm0 0"/><path d="m248 216.40625v-8.40625h-16v8.40625c-14.523438 2.074219-24.972656 15.027344-23.917969 29.664062 1.050781 14.632813 13.246094 25.957032 27.917969 25.929688h8c6.628906 0 12 5.371094 12 12s-5.371094 12-12 12h-8c-6.628906 0-12-5.371094-12-12h-16c.039062 13.878906 10.257812 25.628906 24 27.59375v8.40625h16v-8.40625c14.523438-2.074219 24.972656-15.027344 23.917969-29.664062-1.050781-14.632813-13.246094-25.957032-27.917969-25.929688h-8c-6.628906 0-12-5.371094-12-12s5.371094-12 12-12h8c6.628906 0 12 5.371094 12 12v4h16v-4c-.039062-13.878906-10.257812-25.628906-24-27.59375zm0 0"/><path d="m96 176h16v16h-16zm0 0"/><path d="m144 176h16v16h-16zm0 0"/><path d="m336 272v-16h-8.40625c-4.070312-45.347656-42.074219-80.089844-87.601562-80.089844-45.527344 0-83.53125 34.742188-87.601563 80.089844h-8.390625v16h8.40625c4.070312 45.347656 42.074219 80.089844 87.601562 80.089844 45.527344 0 83.53125-34.742188 87.601563-80.089844zm-96 64c-39.765625 0-72-32.234375-72-72s32.234375-72 72-72 72 32.234375 72 72c-.042969 39.746094-32.253906 71.957031-72 72zm0 0"/><path d="m96 256h16v16h-16zm0 0"/><path d="m96 336h16v16h-16zm0 0"/><path d="m144 336h16v16h-16zm0 0"/><path d="m320 176h16v16h-16zm0 0"/><path d="m368 176h16v16h-16zm0 0"/><path d="m368 256h16v16h-16zm0 0"/></svg>