<svg xmlns="http://www.w3.org/2000/svg" height="936pt" version="1.1" viewBox="-47 0 936 936.24808" width="936pt">
<g id="surface1">
<path d="M 561.867188 199.160156 L 561.867188 124.832031 C 561.867188 116.210938 554.878906 109.230469 546.261719 109.230469 L 483.84375 109.230469 C 483.84375 48.894531 434.949219 0 374.617188 0 C 314.289062 0 265.390625 48.894531 265.390625 109.230469 C 265.390625 152.316406 230.457031 187.246094 187.371094 187.246094 C 144.28125 187.246094 109.347656 152.316406 109.347656 109.230469 L 109.347656 93.625 L 78.140625 93.625 L 78.140625 109.230469 C 78.140625 169.558594 127.042969 218.453125 187.371094 218.453125 C 247.699219 218.453125 296.597656 169.558594 296.597656 109.230469 C 296.597656 66.140625 331.527344 31.207031 374.617188 31.207031 C 417.707031 31.207031 452.636719 66.140625 452.636719 109.230469 L 390.21875 109.230469 C 381.601562 109.230469 374.617188 116.210938 374.617188 124.832031 L 374.617188 199.160156 C 192.027344 246.296875 72.964844 421.859375 96.734375 608.945312 C 120.5 796.019531 279.660156 936.25 468.242188 936.25 C 656.824219 936.25 815.984375 796.019531 839.746094 608.945312 C 863.515625 421.859375 744.453125 246.296875 561.867188 199.160156 Z M 468.242188 905.03125 C 293.199219 905 146.214844 773.28125 127.0625 599.285156 C 107.925781 425.292969 222.757812 264.769531 393.605469 226.675781 C 400.742188 225.089844 405.824219 218.761719 405.824219 211.445312 L 405.824219 140.4375 L 530.65625 140.4375 L 530.65625 211.445312 C 530.65625 218.761719 535.738281 225.089844 542.878906 226.675781 C 713.722656 264.769531 828.558594 425.292969 809.417969 599.285156 C 790.273438 773.28125 643.285156 905 468.242188 905.03125 Z M 468.242188 905.03125 " style=" stroke:none;fill-rule:nonzero;fill:rgb(0%,0%,0%);fill-opacity:1;" />
<path d="M 78.140625 0 L 109.347656 0 L 109.347656 46.8125 L 78.140625 46.8125 Z M 78.140625 0 " style=" stroke:none;fill-rule:nonzero;fill:rgb(0%,0%,0%);fill-opacity:1;" />
<path d="M 0.125 78.019531 L 46.9375 78.019531 L 46.9375 109.230469 L 0.125 109.230469 Z M 0.125 78.019531 " style=" stroke:none;fill-rule:nonzero;fill:rgb(0%,0%,0%);fill-opacity:1;" />
<path d="M 140.558594 78.019531 L 187.371094 78.019531 L 187.371094 109.230469 L 140.558594 109.230469 Z M 140.558594 78.019531 " style=" stroke:none;fill-rule:nonzero;fill:rgb(0%,0%,0%);fill-opacity:1;" />
<path d="M 4.691406 26.632812 L 26.757812 4.570312 L 57.96875 35.777344 L 35.898438 57.84375 Z M 4.691406 26.632812 " style=" stroke:none;fill-rule:nonzero;fill:rgb(0%,0%,0%);fill-opacity:1;" />
<path d="M 129.527344 35.777344 L 160.726562 4.570312 L 182.789062 26.644531 L 151.59375 57.84375 Z M 129.527344 35.777344 " style=" stroke:none;fill-rule:nonzero;fill:rgb(0%,0%,0%);fill-opacity:1;" />
<path d="M 4.691406 160.605469 L 35.898438 129.402344 L 57.960938 151.46875 L 26.757812 182.675781 Z M 4.691406 160.605469 " style=" stroke:none;fill-rule:nonzero;fill:rgb(0%,0%,0%);fill-opacity:1;" />
<path d="M 514.023438 546.136719 L 422.460938 546.136719 C 396.609375 546.136719 375.648438 525.175781 375.648438 499.324219 C 375.648438 473.476562 396.609375 452.511719 422.460938 452.511719 L 561.867188 452.511719 L 561.867188 421.308594 L 483.84375 421.308594 L 483.84375 390.101562 L 452.636719 390.101562 L 452.636719 421.308594 L 422.460938 421.308594 C 379.371094 421.308594 344.441406 456.238281 344.441406 499.324219 C 344.441406 542.414062 379.371094 577.347656 422.460938 577.347656 L 514.023438 577.347656 C 539.878906 577.347656 560.835938 598.308594 560.835938 624.160156 C 560.835938 650.007812 539.878906 670.972656 514.023438 670.972656 L 374.617188 670.972656 L 374.617188 702.179688 L 452.636719 702.179688 L 452.636719 733.386719 L 483.84375 733.386719 L 483.84375 702.179688 L 514.023438 702.179688 C 557.113281 702.179688 592.039062 667.246094 592.039062 624.160156 C 592.039062 581.070312 557.113281 546.136719 514.023438 546.136719 Z M 514.023438 546.136719 " style=" stroke:none;fill-rule:nonzero;fill:rgb(0%,0%,0%);fill-opacity:1;" />
</g>
</svg>