<?xml version="1.0" encoding="iso-8859-1"?>
<!-- Generator: Adobe Illustrator 19.0.0, SVG Export Plug-In . SVG Version: 6.00 Build 0)  -->
<svg version="1.1" id="Capa_1" xmlns="http://www.w3.org/2000/svg" xmlns:xlink="http://www.w3.org/1999/xlink" x="0px" y="0px"
	 viewBox="0 0 512 512" style="enable-background:new 0 0 512 512;" xml:space="preserve">
<g>
	<g>
		<path d="M453.122,348.626l-31.962-68.007c-1.237-2.632-3.884-4.313-6.792-4.313c-6.86,0-309.878,0-316.736,0
			c-2.909,0-5.555,1.681-6.793,4.313l-31.962,68.007c-4.684,9.967,2.369,21.506,13.072,21.506h18.179v123.988
			c0,9.859,7.74,17.878,17.255,17.878L404.618,512c9.514,0,17.255-8.021,17.255-17.879v-42.65c0-4.146-3.36-7.505-7.505-7.505
			c-4.145,0-7.505,3.359-7.505,7.505v42.65c0,1.555-1.028,2.869-2.245,2.869H263.505V317.425l19.917,42.379
			c2.95,6.277,9.21,10.329,15.944,10.329h107.497v46.315c0,4.146,3.36,7.505,7.505,7.505c4.145,0,7.505-3.359,7.505-7.505v-46.315
			h18.179C450.741,370.133,457.813,358.605,453.122,348.626z M72.428,355.123c0.005-0.034,0.015-0.072,0.034-0.112l29.936-63.694
			H244.18l-29.186,62.102c-0.454,0.967-1.324,1.704-2.359,1.704C207.835,355.123,79.462,355.123,72.428,355.123z M248.496,496.989
			H107.383c-1.218,0-2.245-1.313-2.245-2.868V370.133h107.497c6.734,0,12.994-4.053,15.944-10.329l19.917-42.379V496.989z
			 M299.366,355.123c-0.961,0-1.865-0.652-2.359-1.704l-29.186-62.102h141.783l29.936,63.694c0.019,0.04,0.029,0.077,0.034,0.111
			C435.36,355.123,306.991,355.123,299.366,355.123z"/>
	</g>
</g>
<g>
	<g>
		<path d="M166.03,103.715h-13.744c-4.145,0-7.505,3.359-7.505,7.505s3.36,7.505,7.505,7.505h13.744
			c4.145,0,7.505-3.359,7.505-7.505S170.175,103.715,166.03,103.715z"/>
	</g>
</g>
<g>
	<g>
		<path d="M359.715,103.715h-13.744c-4.145,0-7.505,3.36-7.505,7.505c0,4.146,3.36,7.505,7.505,7.505h13.744
			c4.145,0,7.505-3.359,7.505-7.505S363.86,103.715,359.715,103.715z"/>
	</g>
</g>
<g>
	<g>
		<path d="M184.582,152.452c-2.071-3.588-6.662-4.818-10.252-2.747l-11.903,6.872c-3.589,2.072-4.819,6.661-2.747,10.252
			c2.072,3.589,6.661,4.819,10.252,2.747l11.903-6.872C185.425,160.632,186.654,156.043,184.582,152.452z"/>
	</g>
</g>
<g>
	<g>
		<path d="M352.319,55.611c-2.072-3.589-6.663-4.818-10.252-2.747l-11.903,6.872c-3.589,2.072-4.819,6.661-2.747,10.252
			c2.071,3.588,6.661,4.818,10.252,2.747l11.903-6.872C353.162,63.79,354.392,59.201,352.319,55.611z"/>
	</g>
</g>
<g>
	<g>
		<path d="M311.61,14.9c-3.59-2.072-8.18-0.844-10.252,2.747l-6.873,11.904c-2.072,3.589-0.843,8.179,2.747,10.252
			c3.59,2.072,8.179,0.843,10.252-2.747l6.873-11.904C316.43,21.562,315.2,16.972,311.61,14.9z"/>
	</g>
</g>
<g>
	<g>
		<path d="M256.001,0c-4.145,0-7.505,3.359-7.505,7.505v13.744c0,4.146,3.36,7.505,7.505,7.505s7.505-3.359,7.505-7.505V7.505
			C263.506,3.359,260.145,0,256.001,0z"/>
	</g>
</g>
<g>
	<g>
		<path d="M217.514,29.551l-6.873-11.904c-2.072-3.59-6.663-4.818-10.252-2.747c-3.589,2.072-4.819,6.662-2.747,10.252l6.873,11.904
			c2.072,3.589,6.661,4.819,10.252,2.747C218.357,37.73,219.586,33.14,217.514,29.551z"/>
	</g>
</g>
<g>
	<g>
		<path d="M349.573,156.577l-11.903-6.872c-3.59-2.072-8.179-0.845-10.252,2.747c-2.072,3.59-0.843,8.179,2.747,10.252l11.903,6.872
			c3.594,2.073,8.182,0.84,10.252-2.747C354.392,163.238,353.162,158.649,349.573,156.577z"/>
	</g>
</g>
<g>
	<g>
		<path d="M181.835,59.735l-11.903-6.872c-3.591-2.072-8.18-0.845-10.252,2.747c-2.072,3.59-0.843,8.179,2.747,10.252l11.903,6.872
			c3.591,2.072,8.181,0.842,10.252-2.747C186.654,66.396,185.425,61.807,181.835,59.735z"/>
	</g>
</g>
<g>
	<g>
		<path d="M330.395,113.711c0-33.521-22.585-63.047-54.923-71.8c-4.003-1.085-8.122,1.282-9.205,5.283
			c-1.083,4.002,1.283,8.122,5.284,9.205c54.437,14.735,59.54,90.981,6.72,112.372c-3.886,1.576-6.396,5.315-6.396,9.523v10.84
			h-8.371v-44.998h3.778c9.4,0,17.047-7.648,17.047-17.047v-0.494c0-9.4-7.648-17.047-17.047-17.047h-22.564
			c-9.4,0-17.047,7.648-17.047,17.047v0.494c0,9.4,7.648,17.047,17.047,17.047h3.776v44.998h-8.37v-11.205
			c0-4.009-2.416-7.565-6.152-9.059c-52.647-21.046-48.513-97.418,6.495-112.459c3.999-1.094,6.353-5.22,5.259-9.219
			c-1.093-3.997-5.223-6.347-9.218-5.26c-32.871,8.989-55.444,39.009-54.894,73.003c0.467,28.869,17.419,54.582,43.501,66.468v7.991
			c-8.027,1.367-14.164,8.354-14.164,16.764v6.871c0,7.904,5.423,14.548,12.737,16.456l7.942,15.886
			c10.036,20.07,38.707,20.066,48.739,0l7.943-15.887c7.315-1.908,12.736-8.552,12.736-16.456v-6.871
			c0-8.411-6.137-15.397-14.164-16.764v-7.991C313.424,169.314,330.395,143.089,330.395,113.711z M244.718,129.128
			c-1.104,0-2.037-0.934-2.037-2.037v-0.494c0-1.105,0.934-2.037,2.037-2.037h22.564c1.105,0,2.037,0.934,2.037,2.037v0.494
			c0,1.105-0.934,2.037-2.037,2.037H244.718z M266.945,238.658c-4.515,9.03-17.366,9.046-21.89,0.001l-4.303-8.606h30.494
			L266.945,238.658z M286.039,213.03c0,1.092-0.923,2.014-2.014,2.014c-7.531,0-49.82,0-56.05,0c-1.092,0-2.014-0.923-2.014-2.014
			v-6.871c0-1.092,0.923-2.014,2.014-2.014c6.78,0,49.325,0,56.05,0c1.092,0,2.014,0.923,2.014,2.014V213.03z"/>
	</g>
</g>
<g>
</g>
<g>
</g>
<g>
</g>
<g>
</g>
<g>
</g>
<g>
</g>
<g>
</g>
<g>
</g>
<g>
</g>
<g>
</g>
<g>
</g>
<g>
</g>
<g>
</g>
<g>
</g>
<g>
</g>
</svg>
