<svg xmlns="http://www.w3.org/2000/svg" height="935pt" version="1.1" viewBox="0 0 935 935.00029" width="935pt">
<g id="surface1">
<path d="M 15.582031 716.835938 L 75.019531 716.835938 C 85.589844 748.742188 102.46875 778.199219 124.664062 803.441406 L 124.664062 919.414062 C 124.664062 928.019531 131.644531 935 140.246094 935 L 264.914062 935 C 273.519531 935 280.5 928.019531 280.5 919.414062 L 280.5 886.304688 C 290.835938 887.597656 301.25 888.246094 311.664062 888.246094 L 467.5 888.246094 C 477.917969 888.246094 488.324219 887.597656 498.664062 886.304688 L 498.664062 919.414062 C 498.664062 928.019531 505.640625 935 514.246094 935 L 638.914062 935 C 647.519531 935 654.5 928.019531 654.5 919.414062 L 654.5 803.460938 C 671.558594 784.121094 685.535156 762.257812 695.917969 738.648438 L 667.386719 726.179688 C 657.550781 748.515625 644.0625 769.054688 627.480469 786.957031 C 624.8125 789.832031 623.335938 793.613281 623.335938 797.546875 L 623.335938 903.835938 L 529.835938 903.835938 L 529.835938 867.992188 C 529.835938 863.304688 527.734375 858.878906 524.105469 855.914062 C 520.480469 852.957031 515.71875 851.777344 511.128906 852.714844 C 496.773438 855.613281 482.152344 857.074219 467.5 857.082031 L 311.664062 857.082031 C 297.011719 857.074219 282.398438 855.605469 268.039062 852.695312 C 263.445312 851.761719 258.6875 852.9375 255.0625 855.90625 C 251.433594 858.859375 249.335938 863.289062 249.335938 867.972656 L 249.335938 903.835938 L 155.835938 903.835938 L 155.835938 797.457031 C 155.835938 793.539062 154.347656 789.761719 151.683594 786.882812 C 128.09375 761.355469 110.917969 730.570312 101.601562 697.089844 C 99.730469 690.332031 93.582031 685.664062 86.582031 685.664062 L 31.164062 685.664062 L 31.164062 592.164062 L 86.582031 592.164062 C 93.582031 592.164062 99.730469 587.496094 101.601562 580.742188 C 110.9375 547.234375 128.109375 516.433594 151.699219 490.875 C 154.355469 487.996094 155.824219 484.230469 155.835938 480.320312 L 155.835938 375.5625 C 182.5625 381.082031 204.46875 400.160156 213.613281 425.875 C 215.015625 429.832031 217.960938 433.058594 221.769531 434.824219 C 225.585938 436.582031 229.949219 436.730469 233.867188 435.226562 C 254.144531 427.421875 275.460938 422.691406 297.125 421.199219 L 295.035156 390.027344 C 275.230469 391.375 255.671875 395.105469 236.75 401.132812 C 217.867188 365.316406 180.730469 342.890625 140.246094 342.832031 C 131.644531 342.832031 124.664062 349.808594 124.664062 358.421875 L 124.664062 474.339844 C 102.484375 499.613281 85.597656 529.078125 75.019531 561 L 15.582031 561 C 6.980469 561 0 567.980469 0 576.582031 L 0 701.246094 C 0 709.855469 6.980469 716.835938 15.582031 716.835938 Z M 15.582031 716.835938 " style=" stroke:none;fill-rule:nonzero;fill:rgb(0%,0%,0%);fill-opacity:1;" />
<path d="M 155.835938 592.164062 C 155.835938 617.980469 176.765625 638.914062 202.582031 638.914062 C 228.398438 638.914062 249.335938 617.980469 249.335938 592.164062 C 249.335938 566.351562 228.398438 545.421875 202.582031 545.421875 C 176.765625 545.421875 155.835938 566.351562 155.835938 592.164062 Z M 218.164062 592.164062 C 218.164062 600.773438 211.191406 607.746094 202.582031 607.746094 C 193.976562 607.746094 187 600.773438 187 592.164062 C 187 583.5625 193.976562 576.582031 202.582031 576.582031 C 211.191406 576.582031 218.164062 583.5625 218.164062 592.164062 Z M 218.164062 592.164062 " style=" stroke:none;fill-rule:nonzero;fill:rgb(0%,0%,0%);fill-opacity:1;" />
<path d="M 919.414062 93.5 C 820.863281 93.597656 724.507812 64.417969 642.558594 9.679688 L 631.984375 2.621094 C 626.738281 -0.875 619.921875 -0.875 614.675781 2.621094 L 604.101562 9.679688 C 522.152344 64.417969 425.800781 93.597656 327.246094 93.5 C 318.640625 93.5 311.664062 100.480469 311.664062 109.085938 L 311.664062 297.253906 C 311.117188 489.066406 435.578125 658.867188 618.65625 716.101562 C 621.695312 717.070312 624.96875 717.070312 628.003906 716.101562 C 811.085938 658.867188 935.542969 489.066406 934.996094 297.253906 L 934.996094 109.085938 C 934.996094 100.480469 928.019531 93.5 919.414062 93.5 Z M 903.832031 297.253906 C 904.34375 473.632812 791.027344 630.207031 623.335938 684.871094 C 455.636719 630.207031 342.324219 473.632812 342.835938 297.253906 L 342.835938 124.4375 C 442.195312 121.621094 538.738281 90.828125 621.382812 35.609375 L 623.335938 34.285156 L 625.277344 35.578125 C 707.921875 90.816406 804.472656 121.605469 903.832031 124.4375 Z M 903.832031 297.253906 " style=" stroke:none;fill-rule:nonzero;fill:rgb(0%,0%,0%);fill-opacity:1;" />
<path d="M 615.320312 76.359375 C 545.976562 118.050781 468.375 144.117188 387.917969 152.714844 C 380.003906 153.566406 374 160.246094 374 168.207031 L 374 297.386719 C 373.023438 454.53125 470.480469 595.476562 617.847656 650.035156 C 621.359375 651.378906 625.242188 651.378906 628.757812 650.035156 C 776.183594 595.476562 873.691406 454.457031 872.660156 297.253906 L 872.660156 168.0625 C 872.660156 160.113281 866.664062 153.429688 858.742188 152.578125 C 778.300781 144.019531 700.699219 118 631.34375 76.359375 C 626.414062 73.40625 620.246094 73.40625 615.320312 76.359375 Z M 841.496094 181.902344 L 841.496094 297.214844 C 842.40625 439.222656 755.640625 567.066406 623.335938 618.664062 C 491.035156 567.078125 404.257812 439.242188 405.164062 297.253906 L 405.164062 181.933594 C 482.074219 171.886719 556.234375 146.667969 623.335938 107.742188 C 690.425781 146.660156 764.585938 171.863281 841.496094 181.902344 Z M 841.496094 181.902344 " style=" stroke:none;fill-rule:nonzero;fill:rgb(0%,0%,0%);fill-opacity:1;" />
<path d="M 607.75 155.832031 L 638.914062 155.832031 L 638.914062 187 L 607.75 187 Z M 607.75 155.832031 " style=" stroke:none;fill-rule:nonzero;fill:rgb(0%,0%,0%);fill-opacity:1;" />
<path d="M 607.75 545.421875 L 638.914062 545.421875 L 638.914062 576.582031 L 607.75 576.582031 Z M 607.75 545.421875 " style=" stroke:none;fill-rule:nonzero;fill:rgb(0%,0%,0%);fill-opacity:1;" />
<path d="M 436.335938 218.164062 L 467.5 218.164062 L 467.5 249.332031 L 436.335938 249.332031 Z M 436.335938 218.164062 " style=" stroke:none;fill-rule:nonzero;fill:rgb(0%,0%,0%);fill-opacity:1;" />
<path d="M 514.246094 187 L 545.414062 187 L 545.414062 218.164062 L 514.246094 218.164062 Z M 514.246094 187 " style=" stroke:none;fill-rule:nonzero;fill:rgb(0%,0%,0%);fill-opacity:1;" />
<path d="M 779.160156 218.164062 L 810.332031 218.164062 L 810.332031 249.332031 L 779.160156 249.332031 Z M 779.160156 218.164062 " style=" stroke:none;fill-rule:nonzero;fill:rgb(0%,0%,0%);fill-opacity:1;" />
<path d="M 436.335938 311.664062 L 467.5 311.664062 L 467.5 342.832031 L 436.335938 342.832031 Z M 436.335938 311.664062 " style=" stroke:none;fill-rule:nonzero;fill:rgb(0%,0%,0%);fill-opacity:1;" />
<path d="M 779.160156 311.664062 L 810.332031 311.664062 L 810.332031 342.832031 L 779.160156 342.832031 Z M 779.160156 311.664062 " style=" stroke:none;fill-rule:nonzero;fill:rgb(0%,0%,0%);fill-opacity:1;" />
<path d="M 467.5 405.164062 L 498.664062 405.164062 L 498.664062 436.332031 L 467.5 436.332031 Z M 467.5 405.164062 " style=" stroke:none;fill-rule:nonzero;fill:rgb(0%,0%,0%);fill-opacity:1;" />
<path d="M 747.996094 405.164062 L 779.160156 405.164062 L 779.160156 436.332031 L 747.996094 436.332031 Z M 747.996094 405.164062 " style=" stroke:none;fill-rule:nonzero;fill:rgb(0%,0%,0%);fill-opacity:1;" />
<path d="M 529.835938 498.664062 L 561 498.664062 L 561 529.832031 L 529.835938 529.832031 Z M 529.835938 498.664062 " style=" stroke:none;fill-rule:nonzero;fill:rgb(0%,0%,0%);fill-opacity:1;" />
<path d="M 685.664062 498.664062 L 716.835938 498.664062 L 716.835938 529.832031 L 685.664062 529.832031 Z M 685.664062 498.664062 " style=" stroke:none;fill-rule:nonzero;fill:rgb(0%,0%,0%);fill-opacity:1;" />
<path d="M 701.25 187 L 732.414062 187 L 732.414062 218.164062 L 701.25 218.164062 Z M 701.25 187 " style=" stroke:none;fill-rule:nonzero;fill:rgb(0%,0%,0%);fill-opacity:1;" />
</g>
</svg>