<svg height="60pt" viewBox="0 0 60 60" width="60pt" xmlns="http://www.w3.org/2000/svg"><path d="m38 38h-16c-.554688 0-1 .445312-1 1v20c0 .554688.445312 1 1 1h16c.554688 0 1-.445312 1-1v-20c0-.554688-.445312-1-1-1zm-1 20h-14v-18h14zm0 0"/><path d="m25 42h10v2h-10zm0 0"/><path d="m25 46h2v2h-2zm0 0"/><path d="m29 46h2v2h-2zm0 0"/><path d="m33 46h2v2h-2zm0 0"/><path d="m25 50h2v2h-2zm0 0"/><path d="m29 50h2v2h-2zm0 0"/><path d="m33 50h2v2h-2zm0 0"/><path d="m25 54h2v2h-2zm0 0"/><path d="m29 54h2v2h-2zm0 0"/><path d="m33 54h2v2h-2zm0 0"/><path d="m36.894531 6.554688c-.167969-.339844-.515625-.554688-.894531-.554688h-2.554688c.34375-.589844.554688-1.269531.554688-2 0-2.207031-1.792969-4-4-4s-4 1.792969-4 4c0 .730469.210938 1.410156.554688 2h-2.554688c-.378906 0-.726562.214844-.894531.554688l-4 8c-.246094.492187-.046875 1.09375.445312 1.339843l2 1c.472657.234375 1.039063.066407 1.304688-.378906l1.144531-1.90625v14.390625c0 .554688.445312 1 1 1h2c.417969 0 .789062-.257812.9375-.648438l2.0625-5.503906 2.0625 5.503906c.148438.390626.519531.648438.9375.648438h2c.554688 0 1-.445312 1-1v-14.390625l1.140625 1.90625c.269531.445313.835937.609375 1.304687.378906l2-1c.496094-.246093.695313-.847656.449219-1.339843zm-6.742187 1.445312.777344 4.65625-.929688.929688-.929688-.929688.777344-4.65625zm-.152344-6c1.101562 0 2 .898438 2 2s-.898438 2-2 2-2-.898438-2-2 .898438-2 2-2zm4 26h-.304688l-2.757812-7.351562c-.148438-.390626-.519531-.648438-.9375-.648438s-.789062.257812-.9375.648438l-2.757812 7.351562h-.304688v-10h8zm4.382812-13.308594-2.523437-4.207031c-.234375-.382813-.695313-.566406-1.125-.449219-.433594.121094-.734375.515625-.734375.964844v5h-8v-5c0-.449219-.300781-.84375-.734375-.964844-.425781-.121094-.890625.066406-1.121094.449219l-2.523437 4.207031-.277344-.136718 3.273438-6.554688h3.203124l-.804687 4.835938c-.054687.320312.050781.640624.277344.871093l2 2c.195312.195313.449219.292969.707031.292969s.511719-.097656.707031-.292969l2-2c.230469-.230469.332031-.554687.28125-.871093l-.808593-4.835938h3.203124l3.277344 6.554688zm0 0"/><path d="m19.386719 32h1.613281c.554688 0 1-.445312 1-1v-4c0-.554688-.445312-1-1-1h-3.429688c-.175781-.21875-.367187-.429688-.570312-.632812v-3.367188c0-.382812-.21875-.734375-.566406-.902344-.347656-.167968-.757813-.121094-1.058594.121094l-2.472656 1.980469c-.613282-.132813-1.25-.199219-1.902344-.199219-.011719 0-.023438 0-.03125 0 1.226562-.910156 2.03125-2.359375 2.03125-4 0-2.039062-1.238281-3.835938-3.058594-4.597656-.300781-2.472656-2.390625-4.402344-4.941406-4.402344-2.757812 0-5 2.242188-5 5 0 2.035156 1.230469 3.828125 3.058594 4.597656.261718 2.164063 1.894531 3.910156 4.019531 4.308594-2.046875 1.011719-3.53125 2.789062-3.949219 4.886719-.664062-.328125-1.128906-1.003907-1.128906-1.792969v-1h-2v1c0 1.882812 1.308594 3.453125 3.0625 3.878906.125.886719.441406 1.742188.9375 2.515625v4.605469c0 .554688.445312 1 1 1h4c.554688 0 1-.445312 1-1v-1.054688c.667969.070313 1.34375.070313 2 0v1.054688c0 .554688.445312 1 1 1h4c.554688 0 1-.445312 1-1v-3h1c.320312 0 .625-.15625.8125-.414062.1875-.261719.238281-.597657.136719-.902344zm-17.386719-17c0-1.65625 1.34375-3 3-3 1.304688 0 2.417969.835938 2.828125 2.003906-.273437.007813-.539063.039063-.800781.089844-.03125.007812-.0625.019531-.097656.027344-.253907.054687-.503907.128906-.742188.222656-.09375.035156-.175781.074219-.265625.117188-.175781.078124-.351563.167968-.515625.269531-.089844.050781-.171875.105469-.257812.164062-.160157.113281-.3125.234375-.460938.367188-.066406.058593-.136719.113281-.203125.179687-.203125.199219-.390625.410156-.554687.640625 0 .003907-.003907.003907-.003907.007813-.164062.230468-.304687.476562-.425781.738281-.039062.078125-.066406.160156-.101562.242187-.050782.121094-.109376.238282-.148438.363282-.765625-.550782-1.25-1.445313-1.25-2.433594zm3 4.007812c.003906-.035156.007812-.070312.007812-.109374.046876-1.625 1.359376-2.898438 2.992188-2.898438.257812 0 .488281.03125.707031.089844.011719.003906.023438.003906.035157.007812 1.328124.339844 2.257812 1.53125 2.257812 2.902344 0 1.65625-1.34375 3-3 3-1.644531 0-2.984375-1.332031-3-2.992188zm13 10.992188c-.320312 0-.625.15625-.8125.414062-.1875.261719-.238281.597657-.136719.902344l.5625 1.683594h-.613281c-.554688 0-1 .445312-1 1v3h-2v-1.257812c0-.3125-.144531-.605469-.390625-.796876-.25-.1875-.570313-.25-.871094-.171874-1.097656.296874-2.339843.300781-3.492187.007812-.296875-.078125-.617188-.011719-.859375.179688-.246094.1875-.386719.480468-.386719.789062v1.25h-2v-3.910156c0-.207032-.0625-.410156-.1875-.578125-.53125-.75-.8125-1.621094-.8125-2.511719 0-2.757812 2.691406-5 6-5 .648438 0 1.277344.085938 1.867188.25.308593.089844.644531.023438.898437-.179688l1.234375-.988281v1.726563c0 .292968.128906.570312.351562.761718.34375.296876.640626.625.871094.980469.1875.28125.5.449219.835938.449219h2.941406v2zm0 0"/><path d="m59 17h-12c-.554688 0-1 .445312-1 1v3h-3c-.554688 0-1 .445312-1 1v16c0 .554688.445312 1 1 1h12c.554688 0 1-.445312 1-1v-3h3c.554688 0 1-.445312 1-1v-16c0-.554688-.445312-1-1-1zm-5 20h-10v-14h10zm4-4h-2v-11c0-.554688-.445312-1-1-1h-7v-2h10zm0 0"/><path d="m12 43.414062 2.292969 2.292969 1.414062-1.414062-4-4c-.390625-.390625-1.023437-.390625-1.414062 0l-4 4 1.414062 1.414062 2.292969-2.292969v6.585938c0 .554688.445312 1 1 1h8v-2h-7zm0 0"/><path d="m48.292969 40.292969-4 4 1.414062 1.414062 2.292969-2.292969v5.585938h-7v2h8c.554688 0 1-.445312 1-1v-6.585938l2.292969 2.292969 1.414062-1.414062-4-4c-.390625-.390625-1.023437-.390625-1.414062 0zm0 0"/><path d="m31 36v-2.585938l2.292969 2.292969 1.414062-1.414062-4-4c-.390625-.390625-1.023437-.390625-1.414062 0l-4 4 1.414062 1.414062 2.292969-2.292969v2.585938zm0 0"/><path d="m46 29h6v2h-6zm0 0"/><path d="m46 25h6v2h-6zm0 0"/><path d="m46 33h6v2h-6zm0 0"/><path d="m12 27h2v2h-2zm0 0"/></svg>